<svg xmlns="http://www.w3.org/2000/svg" xmlns:xlink="http://www.w3.org/1999/xlink" id="wave" style="transform:rotate(0deg);transition:.3s" version="1.1" viewBox="0 0 1440 490"><defs><linearGradient id="sw-gradient-0" x1="0" x2="0" y1="1" y2="0"><stop offset="0%" stop-color="rgba(206.784, 115.712, 86.462, 1)"/><stop offset="100%" stop-color="rgba(224.999, 178.284, 75.022, 1)"/></linearGradient></defs><path style="transform:translate(0,0);opacity:1" fill="url(#sw-gradient-0)" d="M0,343L80,334.8C160,327,320,310,480,261.3C640,212,800,131,960,130.7C1120,131,1280,212,1440,212.3C1600,212,1760,131,1920,114.3C2080,98,2240,147,2400,155.2C2560,163,2720,131,2880,106.2C3040,82,3200,65,3360,81.7C3520,98,3680,147,3840,187.8C4000,229,4160,261,4320,261.3C4480,261,4640,229,4800,228.7C4960,229,5120,261,5280,277.7C5440,294,5600,294,5760,294C5920,294,6080,294,6240,302.2C6400,310,6560,327,6720,318.5C6880,310,7040,278,7200,236.8C7360,196,7520,147,7680,155.2C7840,163,8000,229,8160,261.3C8320,294,8480,294,8640,285.8C8800,278,8960,261,9120,236.8C9280,212,9440,180,9600,147C9760,114,9920,82,10080,122.5C10240,163,10400,278,10560,277.7C10720,278,10880,163,11040,138.8C11200,114,11360,180,11440,212.3L11520,245L11520,490L11440,490C11360,490,11200,490,11040,490C10880,490,10720,490,10560,490C10400,490,10240,490,10080,490C9920,490,9760,490,9600,490C9440,490,9280,490,9120,490C8960,490,8800,490,8640,490C8480,490,8320,490,8160,490C8000,490,7840,490,7680,490C7520,490,7360,490,7200,490C7040,490,6880,490,6720,490C6560,490,6400,490,6240,490C6080,490,5920,490,5760,490C5600,490,5440,490,5280,490C5120,490,4960,490,4800,490C4640,490,4480,490,4320,490C4160,490,4000,490,3840,490C3680,490,3520,490,3360,490C3200,490,3040,490,2880,490C2720,490,2560,490,2400,490C2240,490,2080,490,1920,490C1760,490,1600,490,1440,490C1280,490,1120,490,960,490C800,490,640,490,480,490C320,490,160,490,80,490L0,490Z"/><defs><linearGradient id="sw-gradient-1" x1="0" x2="0" y1="1" y2="0"><stop offset="0%" stop-color="rgba(25.877, 50.689, 147.588, 1)"/><stop offset="100%" stop-color="rgba(11, 168.204, 255, 1)"/></linearGradient></defs><path style="transform:translate(0,50px);opacity:.9" fill="url(#sw-gradient-1)" d="M0,392L80,400.2C160,408,320,425,480,383.8C640,343,800,245,960,171.5C1120,98,1280,49,1440,98C1600,147,1760,294,1920,310.3C2080,327,2240,212,2400,187.8C2560,163,2720,229,2880,245C3040,261,3200,229,3360,220.5C3520,212,3680,229,3840,245C4000,261,4160,278,4320,269.5C4480,261,4640,229,4800,179.7C4960,131,5120,65,5280,106.2C5440,147,5600,294,5760,310.3C5920,327,6080,212,6240,163.3C6400,114,6560,131,6720,130.7C6880,131,7040,114,7200,98C7360,82,7520,65,7680,73.5C7840,82,8000,114,8160,114.3C8320,114,8480,82,8640,114.3C8800,147,8960,245,9120,269.5C9280,294,9440,245,9600,196C9760,147,9920,98,10080,106.2C10240,114,10400,180,10560,171.5C10720,163,10880,82,11040,49C11200,16,11360,33,11440,40.8L11520,49L11520,490L11440,490C11360,490,11200,490,11040,490C10880,490,10720,490,10560,490C10400,490,10240,490,10080,490C9920,490,9760,490,9600,490C9440,490,9280,490,9120,490C8960,490,8800,490,8640,490C8480,490,8320,490,8160,490C8000,490,7840,490,7680,490C7520,490,7360,490,7200,490C7040,490,6880,490,6720,490C6560,490,6400,490,6240,490C6080,490,5920,490,5760,490C5600,490,5440,490,5280,490C5120,490,4960,490,4800,490C4640,490,4480,490,4320,490C4160,490,4000,490,3840,490C3680,490,3520,490,3360,490C3200,490,3040,490,2880,490C2720,490,2560,490,2400,490C2240,490,2080,490,1920,490C1760,490,1600,490,1440,490C1280,490,1120,490,960,490C800,490,640,490,480,490C320,490,160,490,80,490L0,490Z"/></svg>